<mxfile host="app.diagrams.net" agent="Mozilla/5.0 (Macintosh; Intel Mac OS X 10_15_7) AppleWebKit/537.36 (KHTML, like Gecko) Chrome/127.0.0.0 Safari/537.36" version="24.7.6">
  <diagram name="Page-1" id="AvrR7I-T8kngShXja_Sl">
    <mxGraphModel dx="4848" dy="3572" grid="0" gridSize="10" guides="1" tooltips="1" connect="1" arrows="1" fold="1" page="0" pageScale="1" pageWidth="4681" pageHeight="3300" math="0" shadow="0">
      <root>
        <mxCell id="0" />
        <mxCell id="1" parent="0" />
        <mxCell id="LNBwgK4utnNbtnNtv1Aj-1" value="Region" style="points=[[0,0],[0.25,0],[0.5,0],[0.75,0],[1,0],[1,0.25],[1,0.5],[1,0.75],[1,1],[0.75,1],[0.5,1],[0.25,1],[0,1],[0,0.75],[0,0.5],[0,0.25]];outlineConnect=0;gradientColor=none;html=1;whiteSpace=wrap;fontSize=12;fontStyle=0;container=1;pointerEvents=0;collapsible=0;recursiveResize=0;shape=mxgraph.aws4.group;grIcon=mxgraph.aws4.group_region;strokeColor=#00A4A6;fillColor=none;verticalAlign=top;align=left;spacingLeft=30;fontColor=#147EBA;dashed=1;" parent="1" vertex="1">
          <mxGeometry x="-541" y="-216" width="1729" height="1862" as="geometry" />
        </mxCell>
        <mxCell id="LNBwgK4utnNbtnNtv1Aj-2" value="Availability Zone A" style="fillColor=none;strokeColor=#147EBA;dashed=1;verticalAlign=top;fontStyle=0;fontColor=#147EBA;whiteSpace=wrap;html=1;" parent="LNBwgK4utnNbtnNtv1Aj-1" vertex="1">
          <mxGeometry x="35.5" y="319" width="706" height="1296" as="geometry" />
        </mxCell>
        <mxCell id="LNBwgK4utnNbtnNtv1Aj-3" value="Availability Zone B" style="fillColor=none;strokeColor=#147EBA;dashed=1;verticalAlign=top;fontStyle=0;fontColor=#147EBA;whiteSpace=wrap;html=1;" parent="LNBwgK4utnNbtnNtv1Aj-1" vertex="1">
          <mxGeometry x="923" y="327" width="771" height="1283" as="geometry" />
        </mxCell>
        <mxCell id="LNBwgK4utnNbtnNtv1Aj-16" value="Public subnet" style="points=[[0,0],[0.25,0],[0.5,0],[0.75,0],[1,0],[1,0.25],[1,0.5],[1,0.75],[1,1],[0.75,1],[0.5,1],[0.25,1],[0,1],[0,0.75],[0,0.5],[0,0.25]];outlineConnect=0;gradientColor=none;html=1;whiteSpace=wrap;fontSize=12;fontStyle=0;container=1;pointerEvents=0;collapsible=0;recursiveResize=0;shape=mxgraph.aws4.group;grIcon=mxgraph.aws4.group_security_group;grStroke=0;strokeColor=#7AA116;fillColor=#F2F6E8;verticalAlign=top;align=left;spacingLeft=30;fontColor=#248814;dashed=0;" parent="LNBwgK4utnNbtnNtv1Aj-1" vertex="1">
          <mxGeometry x="943" y="364" width="727" height="414" as="geometry" />
        </mxCell>
        <mxCell id="LNBwgK4utnNbtnNtv1Aj-65" style="edgeStyle=none;curved=1;rounded=0;orthogonalLoop=1;jettySize=auto;html=1;exitX=0.5;exitY=1;exitDx=0;exitDy=0;exitPerimeter=0;entryX=0.5;entryY=0;entryDx=0;entryDy=0;fontSize=12;startSize=8;endSize=8;flowAnimation=1;" parent="LNBwgK4utnNbtnNtv1Aj-1" source="LNBwgK4utnNbtnNtv1Aj-11" target="LNBwgK4utnNbtnNtv1Aj-4" edge="1">
          <mxGeometry relative="1" as="geometry" />
        </mxCell>
        <mxCell id="LNBwgK4utnNbtnNtv1Aj-11" value="" style="outlineConnect=0;dashed=0;verticalLabelPosition=bottom;verticalAlign=top;align=center;html=1;shape=mxgraph.aws3.application_load_balancer;fillColor=#F58534;gradientColor=none;" parent="LNBwgK4utnNbtnNtv1Aj-1" vertex="1">
          <mxGeometry x="811" y="307" width="69" height="72" as="geometry" />
        </mxCell>
        <mxCell id="LNBwgK4utnNbtnNtv1Aj-15" value="Public subnet" style="points=[[0,0],[0.25,0],[0.5,0],[0.75,0],[1,0],[1,0.25],[1,0.5],[1,0.75],[1,1],[0.75,1],[0.5,1],[0.25,1],[0,1],[0,0.75],[0,0.5],[0,0.25]];outlineConnect=0;gradientColor=none;html=1;whiteSpace=wrap;fontSize=12;fontStyle=0;container=1;pointerEvents=0;collapsible=0;recursiveResize=0;shape=mxgraph.aws4.group;grIcon=mxgraph.aws4.group_security_group;grStroke=0;strokeColor=#7AA116;fillColor=#F2F6E8;verticalAlign=top;align=left;spacingLeft=30;fontColor=#248814;dashed=0;" parent="LNBwgK4utnNbtnNtv1Aj-1" vertex="1">
          <mxGeometry x="53" y="370" width="661" height="414" as="geometry" />
        </mxCell>
        <mxCell id="LNBwgK4utnNbtnNtv1Aj-53" style="edgeStyle=none;curved=1;rounded=0;orthogonalLoop=1;jettySize=auto;html=1;exitX=0;exitY=0.5;exitDx=0;exitDy=0;fontSize=12;startSize=8;endSize=8;flowAnimation=1;" parent="LNBwgK4utnNbtnNtv1Aj-1" source="LNBwgK4utnNbtnNtv1Aj-4" target="LNBwgK4utnNbtnNtv1Aj-22" edge="1">
          <mxGeometry relative="1" as="geometry">
            <Array as="points">
              <mxPoint x="107" y="630" />
            </Array>
          </mxGeometry>
        </mxCell>
        <mxCell id="LNBwgK4utnNbtnNtv1Aj-54" style="edgeStyle=none;curved=1;rounded=0;orthogonalLoop=1;jettySize=auto;html=1;exitX=1;exitY=0.5;exitDx=0;exitDy=0;fontSize=12;startSize=8;endSize=8;flowAnimation=1;" parent="LNBwgK4utnNbtnNtv1Aj-1" source="LNBwgK4utnNbtnNtv1Aj-4" target="LNBwgK4utnNbtnNtv1Aj-51" edge="1">
          <mxGeometry relative="1" as="geometry">
            <Array as="points">
              <mxPoint x="1618" y="606" />
            </Array>
          </mxGeometry>
        </mxCell>
        <mxCell id="LNBwgK4utnNbtnNtv1Aj-4" value="AUTOSCALER FOR FRONT END" style="points=[[0,0],[0.25,0],[0.5,0],[0.75,0],[1,0],[1,0.25],[1,0.5],[1,0.75],[1,1],[0.75,1],[0.5,1],[0.25,1],[0,1],[0,0.75],[0,0.5],[0,0.25]];outlineConnect=0;gradientColor=none;html=1;whiteSpace=wrap;fontSize=12;fontStyle=0;container=1;pointerEvents=0;collapsible=0;recursiveResize=0;shape=mxgraph.aws4.groupCenter;grIcon=mxgraph.aws4.group_auto_scaling_group;grStroke=1;strokeColor=#D86613;fillColor=none;verticalAlign=top;align=center;fontColor=#D86613;dashed=1;spacingTop=25;" parent="LNBwgK4utnNbtnNtv1Aj-1" vertex="1">
          <mxGeometry x="157" y="458" width="1381" height="295" as="geometry" />
        </mxCell>
        <mxCell id="LNBwgK4utnNbtnNtv1Aj-24" value="" style="outlineConnect=0;dashed=0;verticalLabelPosition=bottom;verticalAlign=top;align=center;html=1;shape=mxgraph.aws3.ec2;fillColor=#F58534;gradientColor=none;" parent="LNBwgK4utnNbtnNtv1Aj-4" vertex="1">
          <mxGeometry x="77" y="73.5" width="76.5" height="93" as="geometry" />
        </mxCell>
        <mxCell id="LNBwgK4utnNbtnNtv1Aj-44" value="" style="outlineConnect=0;dashed=0;verticalLabelPosition=bottom;verticalAlign=top;align=center;html=1;shape=mxgraph.aws3.route_table;fillColor=#F58536;gradientColor=none;" parent="LNBwgK4utnNbtnNtv1Aj-4" vertex="1">
          <mxGeometry x="653" y="71" width="75" height="69" as="geometry" />
        </mxCell>
        <mxCell id="LNBwgK4utnNbtnNtv1Aj-87" value="Amazon CloudWatch" style="sketch=0;outlineConnect=0;fontColor=#232F3E;gradientColor=none;strokeColor=#ffffff;fillColor=#232F3E;dashed=0;verticalLabelPosition=middle;verticalAlign=bottom;align=center;html=1;whiteSpace=wrap;fontSize=10;fontStyle=1;spacing=3;shape=mxgraph.aws4.productIcon;prIcon=mxgraph.aws4.cloudwatch;" parent="LNBwgK4utnNbtnNtv1Aj-4" vertex="1">
          <mxGeometry x="653" y="178" width="80" height="110" as="geometry" />
        </mxCell>
        <mxCell id="LNBwgK4utnNbtnNtv1Aj-95" style="edgeStyle=none;curved=1;rounded=0;orthogonalLoop=1;jettySize=auto;html=1;exitX=1;exitY=0.5;exitDx=0;exitDy=0;fontSize=12;startSize=8;endSize=8;flowAnimation=1;" parent="LNBwgK4utnNbtnNtv1Aj-4" edge="1">
          <mxGeometry relative="1" as="geometry">
            <mxPoint x="441" y="176" as="sourcePoint" />
            <mxPoint x="653" y="215.77952755905494" as="targetPoint" />
            <Array as="points">
              <mxPoint x="566" y="137" />
            </Array>
          </mxGeometry>
        </mxCell>
        <mxCell id="LNBwgK4utnNbtnNtv1Aj-96" style="edgeStyle=none;curved=1;rounded=0;orthogonalLoop=1;jettySize=auto;html=1;exitX=0;exitY=0.5;exitDx=0;exitDy=0;fontSize=12;startSize=8;endSize=8;flowAnimation=1;" parent="LNBwgK4utnNbtnNtv1Aj-4" edge="1">
          <mxGeometry relative="1" as="geometry">
            <mxPoint x="935" y="176" as="sourcePoint" />
            <mxPoint x="730.9999999999995" y="216.86956521739148" as="targetPoint" />
            <Array as="points">
              <mxPoint x="806" y="151" />
            </Array>
          </mxGeometry>
        </mxCell>
        <mxCell id="LNBwgK4utnNbtnNtv1Aj-110" value="Multi-Attach EBS" style="outlineConnect=0;dashed=0;verticalLabelPosition=bottom;verticalAlign=top;align=center;html=1;shape=mxgraph.aws3.volume;fillColor=#E05243;gradientColor=none;" parent="LNBwgK4utnNbtnNtv1Aj-4" vertex="1">
          <mxGeometry x="231" y="237" width="40" height="55" as="geometry" />
        </mxCell>
        <mxCell id="LNBwgK4utnNbtnNtv1Aj-19" value="Private subnet" style="points=[[0,0],[0.25,0],[0.5,0],[0.75,0],[1,0],[1,0.25],[1,0.5],[1,0.75],[1,1],[0.75,1],[0.5,1],[0.25,1],[0,1],[0,0.75],[0,0.5],[0,0.25]];outlineConnect=0;gradientColor=none;html=1;whiteSpace=wrap;fontSize=12;fontStyle=0;container=1;pointerEvents=0;collapsible=0;recursiveResize=0;shape=mxgraph.aws4.group;grIcon=mxgraph.aws4.group_security_group;grStroke=0;strokeColor=#00A4A6;fillColor=#E6F6F7;verticalAlign=top;align=left;spacingLeft=30;fontColor=#147EBA;dashed=0;" parent="LNBwgK4utnNbtnNtv1Aj-1" vertex="1">
          <mxGeometry x="61" y="910" width="655" height="593" as="geometry" />
        </mxCell>
        <mxCell id="LNBwgK4utnNbtnNtv1Aj-25" value="" style="outlineConnect=0;dashed=0;verticalLabelPosition=bottom;verticalAlign=top;align=center;html=1;shape=mxgraph.aws3.ec2;fillColor=#F58534;gradientColor=none;" parent="LNBwgK4utnNbtnNtv1Aj-1" vertex="1">
          <mxGeometry x="376" y="530.5" width="76.5" height="93" as="geometry" />
        </mxCell>
        <mxCell id="LNBwgK4utnNbtnNtv1Aj-28" value="" style="outlineConnect=0;dashed=0;verticalLabelPosition=bottom;verticalAlign=top;align=center;html=1;shape=mxgraph.aws3.ec2;fillColor=#F58534;gradientColor=none;" parent="LNBwgK4utnNbtnNtv1Aj-1" vertex="1">
          <mxGeometry x="503" y="530.5" width="76.5" height="93" as="geometry" />
        </mxCell>
        <mxCell id="LNBwgK4utnNbtnNtv1Aj-42" value="S3 Bucket&lt;div&gt;&lt;br&gt;&lt;/div&gt;" style="sketch=0;points=[[0,0,0],[0.25,0,0],[0.5,0,0],[0.75,0,0],[1,0,0],[0,1,0],[0.25,1,0],[0.5,1,0],[0.75,1,0],[1,1,0],[0,0.25,0],[0,0.5,0],[0,0.75,0],[1,0.25,0],[1,0.5,0],[1,0.75,0]];outlineConnect=0;fontColor=#232F3E;fillColor=#7AA116;strokeColor=#ffffff;dashed=0;verticalLabelPosition=bottom;verticalAlign=top;align=center;html=1;fontSize=12;fontStyle=0;aspect=fixed;shape=mxgraph.aws4.resourceIcon;resIcon=mxgraph.aws4.s3;" parent="LNBwgK4utnNbtnNtv1Aj-1" vertex="1">
          <mxGeometry x="811" y="1714" width="78" height="78" as="geometry" />
        </mxCell>
        <mxCell id="LNBwgK4utnNbtnNtv1Aj-22" value="" style="sketch=0;outlineConnect=0;fontColor=#232F3E;gradientColor=none;fillColor=#8C4FFF;strokeColor=none;dashed=0;verticalLabelPosition=bottom;verticalAlign=top;align=center;html=1;fontSize=12;fontStyle=0;aspect=fixed;pointerEvents=1;shape=mxgraph.aws4.nat_gateway;" parent="LNBwgK4utnNbtnNtv1Aj-1" vertex="1">
          <mxGeometry x="70" y="663.5" width="78" height="78" as="geometry" />
        </mxCell>
        <mxCell id="LNBwgK4utnNbtnNtv1Aj-57" value="" style="outlineConnect=0;dashed=0;verticalLabelPosition=bottom;verticalAlign=top;align=center;html=1;shape=mxgraph.aws3.rds_db_instance;fillColor=#2E73B8;gradientColor=none;" parent="LNBwgK4utnNbtnNtv1Aj-1" vertex="1">
          <mxGeometry x="1224" y="1134" width="65" height="81" as="geometry" />
        </mxCell>
        <mxCell id="LNBwgK4utnNbtnNtv1Aj-20" value="Private subnet" style="points=[[0,0],[0.25,0],[0.5,0],[0.75,0],[1,0],[1,0.25],[1,0.5],[1,0.75],[1,1],[0.75,1],[0.5,1],[0.25,1],[0,1],[0,0.75],[0,0.5],[0,0.25]];outlineConnect=0;gradientColor=none;html=1;whiteSpace=wrap;fontSize=12;fontStyle=0;container=1;pointerEvents=0;collapsible=0;recursiveResize=0;shape=mxgraph.aws4.group;grIcon=mxgraph.aws4.group_security_group;grStroke=0;strokeColor=#00A4A6;fillColor=#E6F6F7;verticalAlign=top;align=left;spacingLeft=30;fontColor=#147EBA;dashed=0;" parent="LNBwgK4utnNbtnNtv1Aj-1" vertex="1">
          <mxGeometry x="945" y="914" width="702" height="587" as="geometry" />
        </mxCell>
        <mxCell id="LNBwgK4utnNbtnNtv1Aj-10" value="ASG FOR BACKEND" style="points=[[0,0],[0.25,0],[0.5,0],[0.75,0],[1,0],[1,0.25],[1,0.5],[1,0.75],[1,1],[0.75,1],[0.5,1],[0.25,1],[0,1],[0,0.75],[0,0.5],[0,0.25]];outlineConnect=0;gradientColor=none;html=1;whiteSpace=wrap;fontSize=12;fontStyle=0;container=1;pointerEvents=0;collapsible=0;recursiveResize=0;shape=mxgraph.aws4.groupCenter;grIcon=mxgraph.aws4.group_auto_scaling_group;grStroke=1;strokeColor=#D86613;fillColor=none;verticalAlign=top;align=center;fontColor=#D86613;dashed=1;spacingTop=25;" parent="LNBwgK4utnNbtnNtv1Aj-1" vertex="1">
          <mxGeometry x="158.5" y="938" width="1392" height="450" as="geometry" />
        </mxCell>
        <mxCell id="LNBwgK4utnNbtnNtv1Aj-46" value="" style="sketch=0;outlineConnect=0;fontColor=#232F3E;gradientColor=none;fillColor=#8C4FFF;strokeColor=none;dashed=0;verticalLabelPosition=bottom;verticalAlign=top;align=center;html=1;fontSize=12;fontStyle=0;aspect=fixed;pointerEvents=1;shape=mxgraph.aws4.route_table;" parent="LNBwgK4utnNbtnNtv1Aj-10" vertex="1">
          <mxGeometry x="663" y="73" width="62" height="60.41" as="geometry" />
        </mxCell>
        <mxCell id="LNBwgK4utnNbtnNtv1Aj-58" value="MultiAz Standby&lt;div&gt;&lt;br&gt;&lt;/div&gt;" style="outlineConnect=0;dashed=0;verticalLabelPosition=bottom;verticalAlign=top;align=center;html=1;shape=mxgraph.aws3.rds_db_instance_standby_multi_az;fillColor=#2E73B8;gradientColor=none;" parent="LNBwgK4utnNbtnNtv1Aj-10" vertex="1">
          <mxGeometry x="659" y="308" width="66" height="79" as="geometry" />
        </mxCell>
        <mxCell id="LNBwgK4utnNbtnNtv1Aj-91" style="edgeStyle=none;curved=1;rounded=0;orthogonalLoop=1;jettySize=auto;html=1;exitX=1;exitY=0.5;exitDx=0;exitDy=0;exitPerimeter=0;fontSize=12;startSize=8;endSize=8;flowAnimation=1;shadow=1;" parent="LNBwgK4utnNbtnNtv1Aj-10" source="LNBwgK4utnNbtnNtv1Aj-56" target="LNBwgK4utnNbtnNtv1Aj-58" edge="1">
          <mxGeometry relative="1" as="geometry">
            <Array as="points">
              <mxPoint x="482.5" y="416" />
            </Array>
          </mxGeometry>
        </mxCell>
        <mxCell id="LNBwgK4utnNbtnNtv1Aj-56" value="" style="outlineConnect=0;dashed=0;verticalLabelPosition=bottom;verticalAlign=top;align=center;html=1;shape=mxgraph.aws3.rds_db_instance;fillColor=#2E73B8;gradientColor=none;" parent="LNBwgK4utnNbtnNtv1Aj-10" vertex="1">
          <mxGeometry x="222.37" y="282" width="66.25" height="82" as="geometry" />
        </mxCell>
        <mxCell id="LNBwgK4utnNbtnNtv1Aj-68" value="" style="outlineConnect=0;dashed=0;verticalLabelPosition=bottom;verticalAlign=top;align=center;html=1;shape=mxgraph.aws3.rds_db_instance_read_replica;fillColor=#2E73B8;gradientColor=none;" parent="LNBwgK4utnNbtnNtv1Aj-10" vertex="1">
          <mxGeometry x="1073.25" y="260" width="64.5" height="86" as="geometry" />
        </mxCell>
        <mxCell id="LNBwgK4utnNbtnNtv1Aj-88" value="Amazon CloudWatch" style="sketch=0;outlineConnect=0;fontColor=#232F3E;gradientColor=none;strokeColor=#ffffff;fillColor=#232F3E;dashed=0;verticalLabelPosition=middle;verticalAlign=bottom;align=center;html=1;whiteSpace=wrap;fontSize=10;fontStyle=1;spacing=3;shape=mxgraph.aws4.productIcon;prIcon=mxgraph.aws4.cloudwatch;" parent="LNBwgK4utnNbtnNtv1Aj-10" vertex="1">
          <mxGeometry x="654" y="175" width="80" height="110" as="geometry" />
        </mxCell>
        <mxCell id="LNBwgK4utnNbtnNtv1Aj-90" style="edgeStyle=none;curved=1;rounded=0;orthogonalLoop=1;jettySize=auto;html=1;exitX=0;exitY=0.5;exitDx=0;exitDy=0;fontSize=12;startSize=8;endSize=8;startArrow=classic;startFill=1;flowAnimation=1;shadow=1;" parent="LNBwgK4utnNbtnNtv1Aj-10" source="LNBwgK4utnNbtnNtv1Aj-61" edge="1">
          <mxGeometry relative="1" as="geometry">
            <mxPoint x="936.5" y="71" as="sourcePoint" />
            <mxPoint x="734" y="197.0679012345679" as="targetPoint" />
            <Array as="points">
              <mxPoint x="795.5" y="85" />
            </Array>
          </mxGeometry>
        </mxCell>
        <mxCell id="LNBwgK4utnNbtnNtv1Aj-92" style="edgeStyle=none;curved=1;rounded=0;orthogonalLoop=1;jettySize=auto;html=1;exitX=0.5;exitY=0.98;exitDx=0;exitDy=0;exitPerimeter=0;entryX=0.5;entryY=0.99;entryDx=0;entryDy=0;entryPerimeter=0;fontSize=12;startSize=8;endSize=8;flowAnimation=1;shadow=1;" parent="LNBwgK4utnNbtnNtv1Aj-10" source="LNBwgK4utnNbtnNtv1Aj-56" target="LNBwgK4utnNbtnNtv1Aj-68" edge="1">
          <mxGeometry relative="1" as="geometry">
            <Array as="points">
              <mxPoint x="756.5" y="508" />
            </Array>
          </mxGeometry>
        </mxCell>
        <mxCell id="LNBwgK4utnNbtnNtv1Aj-109" style="edgeStyle=none;curved=1;rounded=0;orthogonalLoop=1;jettySize=auto;html=1;entryX=1;entryY=0.5;entryDx=0;entryDy=0;fontSize=12;startSize=8;endSize=8;flowAnimation=1;" parent="LNBwgK4utnNbtnNtv1Aj-10" source="LNBwgK4utnNbtnNtv1Aj-51" edge="1">
          <mxGeometry relative="1" as="geometry">
            <mxPoint x="1367.362831858407" y="-332.9999999999998" as="sourcePoint" />
            <mxPoint x="1278.5" y="98" as="targetPoint" />
            <Array as="points">
              <mxPoint x="1394" y="-263" />
              <mxPoint x="1410" y="28" />
            </Array>
          </mxGeometry>
        </mxCell>
        <mxCell id="LNBwgK4utnNbtnNtv1Aj-51" value="" style="sketch=0;outlineConnect=0;fontColor=#232F3E;gradientColor=none;fillColor=#8C4FFF;strokeColor=none;dashed=0;verticalLabelPosition=bottom;verticalAlign=top;align=center;html=1;fontSize=12;fontStyle=0;aspect=fixed;pointerEvents=1;shape=mxgraph.aws4.nat_gateway;flipH=1;" parent="LNBwgK4utnNbtnNtv1Aj-1" vertex="1">
          <mxGeometry x="1580" y="646" width="86" height="86" as="geometry" />
        </mxCell>
        <mxCell id="LNBwgK4utnNbtnNtv1Aj-84" style="edgeStyle=none;curved=1;rounded=0;orthogonalLoop=1;jettySize=auto;html=1;exitX=0.5;exitY=1;exitDx=0;exitDy=0;exitPerimeter=0;fontSize=12;startSize=8;endSize=8;" parent="LNBwgK4utnNbtnNtv1Aj-1" source="LNBwgK4utnNbtnNtv1Aj-42" target="LNBwgK4utnNbtnNtv1Aj-42" edge="1">
          <mxGeometry relative="1" as="geometry" />
        </mxCell>
        <mxCell id="LNBwgK4utnNbtnNtv1Aj-5" value="Internet Gateway" style="sketch=0;outlineConnect=0;fontColor=#232F3E;gradientColor=none;fillColor=#8C4FFF;strokeColor=none;dashed=0;verticalLabelPosition=bottom;verticalAlign=top;align=center;html=1;fontSize=12;fontStyle=0;aspect=fixed;pointerEvents=1;shape=mxgraph.aws4.internet_gateway;" parent="LNBwgK4utnNbtnNtv1Aj-1" vertex="1">
          <mxGeometry x="802.5" y="-46" width="78" height="78" as="geometry" />
        </mxCell>
        <mxCell id="LNBwgK4utnNbtnNtv1Aj-102" style="edgeStyle=none;curved=1;rounded=0;orthogonalLoop=1;jettySize=auto;html=1;fontSize=12;startSize=8;endSize=8;flowAnimation=1;" parent="LNBwgK4utnNbtnNtv1Aj-1" source="LNBwgK4utnNbtnNtv1Aj-99" target="LNBwgK4utnNbtnNtv1Aj-11" edge="1">
          <mxGeometry relative="1" as="geometry" />
        </mxCell>
        <mxCell id="LNBwgK4utnNbtnNtv1Aj-99" value="API GATEWAY&lt;div&gt;&lt;br&gt;&lt;/div&gt;" style="sketch=0;points=[[0,0,0],[0.25,0,0],[0.5,0,0],[0.75,0,0],[1,0,0],[0,1,0],[0.25,1,0],[0.5,1,0],[0.75,1,0],[1,1,0],[0,0.25,0],[0,0.5,0],[0,0.75,0],[1,0.25,0],[1,0.5,0],[1,0.75,0]];outlineConnect=0;fontColor=#232F3E;fillColor=#E7157B;strokeColor=#ffffff;dashed=0;verticalLabelPosition=bottom;verticalAlign=top;align=center;html=1;fontSize=12;fontStyle=0;aspect=fixed;shape=mxgraph.aws4.resourceIcon;resIcon=mxgraph.aws4.api_gateway;" parent="LNBwgK4utnNbtnNtv1Aj-1" vertex="1">
          <mxGeometry x="807.5" y="134" width="71" height="71" as="geometry" />
        </mxCell>
        <mxCell id="LNBwgK4utnNbtnNtv1Aj-101" style="edgeStyle=none;curved=1;rounded=0;orthogonalLoop=1;jettySize=auto;html=1;entryX=0.5;entryY=0;entryDx=0;entryDy=0;entryPerimeter=0;fontSize=12;startSize=8;endSize=8;flowAnimation=1;" parent="LNBwgK4utnNbtnNtv1Aj-1" source="LNBwgK4utnNbtnNtv1Aj-5" target="LNBwgK4utnNbtnNtv1Aj-99" edge="1">
          <mxGeometry relative="1" as="geometry" />
        </mxCell>
        <mxCell id="LNBwgK4utnNbtnNtv1Aj-114" value="" style="group" parent="LNBwgK4utnNbtnNtv1Aj-1" vertex="1" connectable="0">
          <mxGeometry x="1117.25" y="530.5" width="300.5" height="93" as="geometry" />
        </mxCell>
        <mxCell id="LNBwgK4utnNbtnNtv1Aj-26" value="" style="outlineConnect=0;dashed=0;verticalLabelPosition=bottom;verticalAlign=top;align=center;html=1;shape=mxgraph.aws3.ec2;fillColor=#F58534;gradientColor=none;" parent="LNBwgK4utnNbtnNtv1Aj-114" vertex="1">
          <mxGeometry width="76.5" height="93" as="geometry" />
        </mxCell>
        <mxCell id="LNBwgK4utnNbtnNtv1Aj-27" value="" style="outlineConnect=0;dashed=0;verticalLabelPosition=bottom;verticalAlign=top;align=center;html=1;shape=mxgraph.aws3.ec2;fillColor=#F58534;gradientColor=none;" parent="LNBwgK4utnNbtnNtv1Aj-114" vertex="1">
          <mxGeometry x="224" width="76.5" height="93" as="geometry" />
        </mxCell>
        <mxCell id="LNBwgK4utnNbtnNtv1Aj-115" value="" style="edgeStyle=none;curved=1;rounded=0;orthogonalLoop=1;jettySize=auto;html=1;fontSize=12;startSize=8;endSize=8;entryX=0.525;entryY=0.998;entryDx=0;entryDy=0;entryPerimeter=0;startArrow=classic;startFill=1;flowAnimation=1;" parent="LNBwgK4utnNbtnNtv1Aj-1" source="LNBwgK4utnNbtnNtv1Aj-113" target="LNBwgK4utnNbtnNtv1Aj-62" edge="1">
          <mxGeometry relative="1" as="geometry" />
        </mxCell>
        <mxCell id="LNBwgK4utnNbtnNtv1Aj-113" value="Multi-Attach EBS" style="outlineConnect=0;dashed=0;verticalLabelPosition=bottom;verticalAlign=top;align=center;html=1;shape=mxgraph.aws3.volume;fillColor=#E05243;gradientColor=none;" parent="LNBwgK4utnNbtnNtv1Aj-1" vertex="1">
          <mxGeometry x="1256" y="690" width="40" height="55" as="geometry" />
        </mxCell>
        <mxCell id="LNBwgK4utnNbtnNtv1Aj-62" value="EC2 Instances/Droplets" style="swimlane;startSize=0;" parent="LNBwgK4utnNbtnNtv1Aj-1" vertex="1">
          <mxGeometry x="1096" y="506" width="343" height="150" as="geometry" />
        </mxCell>
        <mxCell id="LNBwgK4utnNbtnNtv1Aj-29" value="" style="outlineConnect=0;dashed=0;verticalLabelPosition=bottom;verticalAlign=top;align=center;html=1;shape=mxgraph.aws3.ec2;fillColor=#F58534;gradientColor=none;" parent="LNBwgK4utnNbtnNtv1Aj-62" vertex="1">
          <mxGeometry x="133.25" y="29" width="76.5" height="93" as="geometry" />
        </mxCell>
        <mxCell id="LNBwgK4utnNbtnNtv1Aj-105" style="edgeStyle=none;curved=1;rounded=0;orthogonalLoop=1;jettySize=auto;html=1;exitX=0.5;exitY=1;exitDx=0;exitDy=0;fontSize=12;startSize=8;endSize=8;flowAnimation=1;" parent="1" source="LNBwgK4utnNbtnNtv1Aj-7" target="LNBwgK4utnNbtnNtv1Aj-47" edge="1">
          <mxGeometry relative="1" as="geometry" />
        </mxCell>
        <mxCell id="LNBwgK4utnNbtnNtv1Aj-7" value="Internet&lt;div&gt;&lt;br&gt;&lt;/div&gt;" style="image;aspect=fixed;perimeter=ellipsePerimeter;html=1;align=center;shadow=0;dashed=0;spacingTop=3;image=img/lib/active_directory/internet_cloud.svg;" parent="1" vertex="1">
          <mxGeometry x="186.93" y="-626" width="224" height="141.12" as="geometry" />
        </mxCell>
        <mxCell id="LNBwgK4utnNbtnNtv1Aj-33" value="" style="outlineConnect=0;dashed=0;verticalLabelPosition=bottom;verticalAlign=top;align=center;html=1;shape=mxgraph.aws3.ec2;fillColor=#F58534;gradientColor=none;" parent="1" vertex="1">
          <mxGeometry x="572" y="833" width="76.5" height="93" as="geometry" />
        </mxCell>
        <mxCell id="LNBwgK4utnNbtnNtv1Aj-34" value="" style="outlineConnect=0;dashed=0;verticalLabelPosition=bottom;verticalAlign=top;align=center;html=1;shape=mxgraph.aws3.ec2;fillColor=#F58534;gradientColor=none;" parent="1" vertex="1">
          <mxGeometry x="793" y="838" width="76.5" height="93" as="geometry" />
        </mxCell>
        <mxCell id="LNBwgK4utnNbtnNtv1Aj-35" value="" style="outlineConnect=0;dashed=0;verticalLabelPosition=bottom;verticalAlign=top;align=center;html=1;shape=mxgraph.aws3.ec2;fillColor=#F58534;gradientColor=none;" parent="1" vertex="1">
          <mxGeometry x="683" y="838" width="76.5" height="93" as="geometry" />
        </mxCell>
        <mxCell id="LNBwgK4utnNbtnNtv1Aj-104" style="edgeStyle=none;curved=1;rounded=0;orthogonalLoop=1;jettySize=auto;html=1;exitX=0.5;exitY=1;exitDx=0;exitDy=0;fontSize=12;startSize=8;endSize=8;flowAnimation=1;" parent="1" source="LNBwgK4utnNbtnNtv1Aj-47" target="LNBwgK4utnNbtnNtv1Aj-5" edge="1">
          <mxGeometry relative="1" as="geometry" />
        </mxCell>
        <mxCell id="LNBwgK4utnNbtnNtv1Aj-47" value="" style="shape=image;verticalLabelPosition=bottom;labelBackgroundColor=default;verticalAlign=top;aspect=fixed;imageAspect=0;image=https://cf-assets.www.cloudflare.com/slt3lc6tev37/7bIgGp4hk4SFO0o3SBbOKJ/b48185dcf20c579960afad879b25ea11/CF_logo_stacked_blktype.jpg;" parent="1" vertex="1">
          <mxGeometry x="216" y="-386" width="165.86" height="55.98" as="geometry" />
        </mxCell>
        <mxCell id="LNBwgK4utnNbtnNtv1Aj-69" style="edgeStyle=none;curved=1;rounded=0;orthogonalLoop=1;jettySize=auto;html=1;exitX=0.5;exitY=1;exitDx=0;exitDy=0;fontSize=12;startSize=8;endSize=8;flowAnimation=1;" parent="1" source="LNBwgK4utnNbtnNtv1Aj-60" target="LNBwgK4utnNbtnNtv1Aj-56" edge="1">
          <mxGeometry relative="1" as="geometry" />
        </mxCell>
        <mxCell id="LNBwgK4utnNbtnNtv1Aj-89" style="edgeStyle=none;curved=1;rounded=0;orthogonalLoop=1;jettySize=auto;html=1;exitX=1;exitY=0.25;exitDx=0;exitDy=0;fontSize=12;startSize=8;endSize=8;startArrow=open;startFill=0;flowAnimation=1;shadow=1;" parent="1" source="LNBwgK4utnNbtnNtv1Aj-60" target="LNBwgK4utnNbtnNtv1Aj-88" edge="1">
          <mxGeometry relative="1" as="geometry">
            <Array as="points">
              <mxPoint x="177" y="827" />
            </Array>
          </mxGeometry>
        </mxCell>
        <mxCell id="LNBwgK4utnNbtnNtv1Aj-60" value="Private EC2 instances" style="swimlane;startSize=0;" parent="1" vertex="1">
          <mxGeometry x="-296" y="807" width="343" height="150" as="geometry" />
        </mxCell>
        <mxCell id="LNBwgK4utnNbtnNtv1Aj-72" style="edgeStyle=none;curved=1;rounded=0;orthogonalLoop=1;jettySize=auto;html=1;exitX=0.5;exitY=1;exitDx=0;exitDy=0;fontSize=12;startSize=8;endSize=8;" parent="1" source="LNBwgK4utnNbtnNtv1Aj-61" target="LNBwgK4utnNbtnNtv1Aj-68" edge="1">
          <mxGeometry relative="1" as="geometry" />
        </mxCell>
        <mxCell id="LNBwgK4utnNbtnNtv1Aj-61" value="PriEC2 instances" style="swimlane;startSize=0;" parent="1" vertex="1">
          <mxGeometry x="554" y="813" width="343" height="150" as="geometry" />
        </mxCell>
        <mxCell id="LNBwgK4utnNbtnNtv1Aj-63" value="EC2 Instance/Droplets" style="swimlane;startSize=0;" parent="1" vertex="1">
          <mxGeometry x="-324" y="306" width="381" height="115" as="geometry" />
        </mxCell>
        <mxCell id="LNBwgK4utnNbtnNtv1Aj-70" style="edgeStyle=none;curved=1;rounded=0;orthogonalLoop=1;jettySize=auto;html=1;exitX=1;exitY=0.5;exitDx=0;exitDy=0;entryX=0;entryY=0.5;entryDx=0;entryDy=0;entryPerimeter=0;fontSize=12;startSize=8;endSize=8;dashed=1;dashPattern=12 12;flowAnimation=1;" parent="1" source="LNBwgK4utnNbtnNtv1Aj-60" target="LNBwgK4utnNbtnNtv1Aj-58" edge="1">
          <mxGeometry relative="1" as="geometry">
            <Array as="points">
              <mxPoint x="120" y="1037" />
            </Array>
          </mxGeometry>
        </mxCell>
        <mxCell id="LNBwgK4utnNbtnNtv1Aj-73" style="edgeStyle=none;curved=1;rounded=0;orthogonalLoop=1;jettySize=auto;html=1;exitX=0;exitY=0.5;exitDx=0;exitDy=0;entryX=1;entryY=0.5;entryDx=0;entryDy=0;entryPerimeter=0;fontSize=12;startSize=8;endSize=8;dashed=1;dashPattern=8 8;flowAnimation=1;" parent="1" source="LNBwgK4utnNbtnNtv1Aj-61" target="LNBwgK4utnNbtnNtv1Aj-58" edge="1">
          <mxGeometry relative="1" as="geometry">
            <Array as="points">
              <mxPoint x="545" y="1063" />
            </Array>
          </mxGeometry>
        </mxCell>
        <mxCell id="LNBwgK4utnNbtnNtv1Aj-100" style="edgeStyle=none;curved=1;rounded=0;orthogonalLoop=1;jettySize=auto;html=1;exitX=0.5;exitY=0;exitDx=0;exitDy=0;fontSize=12;startSize=8;endSize=8;" parent="1" source="LNBwgK4utnNbtnNtv1Aj-47" target="LNBwgK4utnNbtnNtv1Aj-47" edge="1">
          <mxGeometry relative="1" as="geometry" />
        </mxCell>
        <mxCell id="LNBwgK4utnNbtnNtv1Aj-106" style="edgeStyle=none;curved=1;rounded=0;orthogonalLoop=1;jettySize=auto;html=1;entryX=0;entryY=0.5;entryDx=0;entryDy=0;fontSize=12;startSize=8;endSize=8;flowAnimation=1;" parent="1" source="LNBwgK4utnNbtnNtv1Aj-22" target="LNBwgK4utnNbtnNtv1Aj-60" edge="1">
          <mxGeometry relative="1" as="geometry">
            <Array as="points">
              <mxPoint x="-576" y="852" />
            </Array>
          </mxGeometry>
        </mxCell>
        <mxCell id="LNBwgK4utnNbtnNtv1Aj-116" style="edgeStyle=none;curved=1;rounded=0;orthogonalLoop=1;jettySize=auto;html=1;exitX=0.5;exitY=1;exitDx=0;exitDy=0;entryX=0.5;entryY=0;entryDx=0;entryDy=0;entryPerimeter=0;fontSize=12;startSize=8;endSize=8;startArrow=classic;startFill=1;flowAnimation=1;" parent="1" source="LNBwgK4utnNbtnNtv1Aj-63" target="LNBwgK4utnNbtnNtv1Aj-110" edge="1">
          <mxGeometry relative="1" as="geometry" />
        </mxCell>
        <mxCell id="LNBwgK4utnNbtnNtv1Aj-117" style="edgeStyle=none;curved=1;rounded=0;orthogonalLoop=1;jettySize=auto;html=1;exitX=0.25;exitY=1;exitDx=0;exitDy=0;entryX=0;entryY=0.5;entryDx=0;entryDy=0;entryPerimeter=0;fontSize=12;startSize=8;endSize=8;startArrow=classic;startFill=1;flowAnimation=1;" parent="1" source="LNBwgK4utnNbtnNtv1Aj-60" target="LNBwgK4utnNbtnNtv1Aj-42" edge="1">
          <mxGeometry relative="1" as="geometry">
            <Array as="points">
              <mxPoint x="-256" y="1380" />
            </Array>
          </mxGeometry>
        </mxCell>
        <mxCell id="LNBwgK4utnNbtnNtv1Aj-118" style="edgeStyle=none;curved=1;rounded=0;orthogonalLoop=1;jettySize=auto;html=1;exitX=0.75;exitY=1;exitDx=0;exitDy=0;entryX=1;entryY=0.5;entryDx=0;entryDy=0;entryPerimeter=0;fontSize=12;startSize=8;endSize=8;startArrow=classic;startFill=1;flowAnimation=1;" parent="1" source="LNBwgK4utnNbtnNtv1Aj-61" target="LNBwgK4utnNbtnNtv1Aj-42" edge="1">
          <mxGeometry relative="1" as="geometry">
            <Array as="points">
              <mxPoint x="908" y="1348" />
            </Array>
          </mxGeometry>
        </mxCell>
        <mxCell id="LNBwgK4utnNbtnNtv1Aj-122" value="" style="sketch=0;outlineConnect=0;fontColor=#232F3E;gradientColor=none;fillColor=#7AA116;strokeColor=none;dashed=0;verticalLabelPosition=bottom;verticalAlign=top;align=center;html=1;fontSize=12;fontStyle=0;aspect=fixed;pointerEvents=1;shape=mxgraph.aws4.file_system;" parent="1" vertex="1">
          <mxGeometry x="849" y="238" width="78" height="73" as="geometry" />
        </mxCell>
        <mxCell id="LNBwgK4utnNbtnNtv1Aj-123" value="" style="sketch=0;outlineConnect=0;fontColor=#232F3E;gradientColor=none;fillColor=#7AA116;strokeColor=none;dashed=0;verticalLabelPosition=bottom;verticalAlign=top;align=center;html=1;fontSize=12;fontStyle=0;aspect=fixed;pointerEvents=1;shape=mxgraph.aws4.file_system;" parent="1" vertex="1">
          <mxGeometry x="19" y="248" width="68" height="73" as="geometry" />
        </mxCell>
        <mxCell id="LNBwgK4utnNbtnNtv1Aj-128" value="" style="group" parent="1" vertex="1" connectable="0">
          <mxGeometry x="-278" y="817" width="297.5" height="98" as="geometry" />
        </mxCell>
        <mxCell id="LNBwgK4utnNbtnNtv1Aj-36" value="" style="outlineConnect=0;dashed=0;verticalLabelPosition=bottom;verticalAlign=top;align=center;html=1;shape=mxgraph.aws3.ec2;fillColor=#F58534;gradientColor=none;" parent="LNBwgK4utnNbtnNtv1Aj-128" vertex="1">
          <mxGeometry width="76.5" height="93" as="geometry" />
        </mxCell>
        <mxCell id="LNBwgK4utnNbtnNtv1Aj-37" value="" style="outlineConnect=0;dashed=0;verticalLabelPosition=bottom;verticalAlign=top;align=center;html=1;shape=mxgraph.aws3.ec2;fillColor=#F58534;gradientColor=none;" parent="LNBwgK4utnNbtnNtv1Aj-128" vertex="1">
          <mxGeometry x="221" y="5" width="76.5" height="93" as="geometry" />
        </mxCell>
        <mxCell id="LNBwgK4utnNbtnNtv1Aj-38" value="" style="outlineConnect=0;dashed=0;verticalLabelPosition=bottom;verticalAlign=top;align=center;html=1;shape=mxgraph.aws3.ec2;fillColor=#F58534;gradientColor=none;" parent="LNBwgK4utnNbtnNtv1Aj-128" vertex="1">
          <mxGeometry x="111" y="5" width="76.5" height="93" as="geometry" />
        </mxCell>
      </root>
    </mxGraphModel>
  </diagram>
</mxfile>
